<?xml version="1.0" encoding="utf-8"?>
<!-- Generator: Adobe Illustrator 20.0.0, SVG Export Plug-In . SVG Version: 6.00 Build 0)  -->
<svg version="1.1" id="Layer_1" xmlns="http://www.w3.org/2000/svg" xmlns:xlink="http://www.w3.org/1999/xlink" x="0px" y="0px"
	 viewBox="0 0 350 80.6" style="enable-background:new 0 0 350 80.6;" xml:space="preserve">
<style type="text/css">
	.st0{fill:#63689B;}
	.st1{opacity:0.65;fill:#63689B;}
</style>
<g>
	<g>
		<g>
			<path class="st0" d="M94.8,6.6h12.1c8.2,0,11.5,0.7,14.1,2.2c4.3,2.1,7.6,7.9,7.6,14.1c0.1,3.3-0.9,7.4-3.4,10.7
				c-3.9,5.1-8.3,5.7-14.3,5.9l14.2,19.9h-2.7l-15.5-21.9h1.5c3.9,0,10.1,0,13.5-3.4c3.4-3.5,4.5-7.1,4.5-11.3
				c0-4.6-2.2-9.6-6.3-12.3c-3.2-2.1-7.1-2.1-13.3-2.1h-9.9v50.9h-2.1V6.6z"/>
			<path class="st0" d="M132.3,59.5H130l22.6-52.9h2.8l22.6,52.9h-2.3L167.9,41h-27.6L132.3,59.5z M154,8.6l-12.9,30.5H167L154,8.6z
				"/>
			<path class="st0" d="M184,46.1c1.3,10.1,9,12.4,13.1,12.4c6.6,0,13.3-5,13.3-12.6c0-9.7-8.4-11.7-13.5-13.1
				c-4.6-1.1-13.9-3.4-13.9-13.4c-0.2-8.8,6.7-13.8,14.4-13.8c6.2,0,12.5,3.6,13.6,12.3h-2.1c-0.8-4.2-3.1-10.4-11.6-10.4
				c-6.7,0-12.1,4.6-12.1,11.5c-0.1,8.4,6.9,10.5,14.2,12.4c2.6,0.7,13.1,2.6,13.1,14.1c0,8.7-7.5,14.8-15.4,14.8
				c-6.4,0-14.6-4.3-15.3-14.3H184z"/>
			<path class="st0" d="M269,48c-3.6,6.1-12,12.4-23.1,12.4c-15.1,0-27.4-11.5-27.4-27.4s12.3-27.4,27.4-27.4
				c11.3,0.1,19.3,6.7,23.1,12.7h-2.5c-2-2.8-8.9-10.7-20.6-10.8c-14,0-25.3,10.8-25.3,25.4s11.3,25.4,25.3,25.4
				c12.4,0,19.1-8.4,20.6-10.5H269z"/>
			<path class="st0" d="M271.7,59.5h-2.3L292,6.6h2.8l22.6,52.9h-2.3L307.2,41h-27.6L271.7,59.5z M293.4,8.6l-12.9,30.5h25.8
				L293.4,8.6z"/>
			<path class="st0" d="M323.4,6.6h2.1v50.9h22.4v1.9h-24.5V6.6z"/>
		</g>
	</g>
	<g>
		<g>
			<path class="st0" d="M96.1,73.2v2.5h-1v-6.3h1.8c0.8,0,1.4,0.2,1.8,0.5c0.4,0.3,0.6,0.8,0.6,1.4c0,0.8-0.4,1.3-1.2,1.7l1.8,2.8
				h-1.2l-1.5-2.5H96.1z M96.1,72.4h0.7c0.5,0,0.8-0.1,1-0.3c0.2-0.2,0.3-0.4,0.3-0.8c0-0.4-0.1-0.6-0.3-0.8
				c-0.2-0.2-0.6-0.2-1.1-0.2h-0.7V72.4z"/>
			<path class="st0" d="M104.3,75.7h-3.6v-6.3h3.6v0.9h-2.5V72h2.4v0.9h-2.4v2h2.5V75.7z"/>
			<path class="st0" d="M109.3,74c0,0.6-0.2,1-0.6,1.3c-0.4,0.3-1,0.5-1.7,0.5s-1.3-0.1-1.7-0.3v-1c0.3,0.1,0.6,0.2,0.9,0.3
				c0.3,0.1,0.6,0.1,0.9,0.1c0.4,0,0.7-0.1,0.9-0.2c0.2-0.2,0.3-0.4,0.3-0.6c0-0.2-0.1-0.4-0.3-0.6c-0.2-0.2-0.5-0.4-1.1-0.6
				c-0.6-0.2-1-0.5-1.2-0.8s-0.4-0.7-0.4-1.1c0-0.5,0.2-0.9,0.6-1.2c0.4-0.3,0.9-0.5,1.5-0.5c0.6,0,1.2,0.1,1.8,0.4l-0.3,0.8
				c-0.6-0.2-1.1-0.4-1.5-0.4c-0.3,0-0.6,0.1-0.8,0.2c-0.2,0.1-0.3,0.3-0.3,0.6c0,0.2,0,0.3,0.1,0.4c0.1,0.1,0.2,0.2,0.3,0.3
				s0.4,0.2,0.9,0.4c0.5,0.2,0.8,0.4,1,0.5c0.2,0.2,0.4,0.4,0.5,0.6C109.3,73.5,109.3,73.7,109.3,74z"/>
			<path class="st0" d="M114.2,75.7h-3.6v-6.3h3.6v0.9h-2.5V72h2.4v0.9h-2.4v2h2.5V75.7z"/>
			<path class="st0" d="M119.5,75.7l-0.6-1.7h-2.4l-0.6,1.7h-1.1l2.4-6.3h1.1l2.4,6.3H119.5z M118.6,73.1l-0.6-1.7
				c0-0.1-0.1-0.3-0.2-0.5c-0.1-0.2-0.1-0.4-0.2-0.5c-0.1,0.4-0.2,0.7-0.3,1.2l-0.6,1.6H118.6z"/>
			<path class="st0" d="M122.5,73.2v2.5h-1v-6.3h1.8c0.8,0,1.4,0.2,1.8,0.5c0.4,0.3,0.6,0.8,0.6,1.4c0,0.8-0.4,1.3-1.2,1.7l1.8,2.8
				H125l-1.5-2.5H122.5z M122.5,72.4h0.7c0.5,0,0.8-0.1,1-0.3c0.2-0.2,0.3-0.4,0.3-0.8c0-0.4-0.1-0.6-0.3-0.8
				c-0.2-0.2-0.6-0.2-1.1-0.2h-0.7V72.4z"/>
			<path class="st0" d="M129.8,70.2c-0.6,0-1.1,0.2-1.4,0.6c-0.3,0.4-0.5,1-0.5,1.7c0,0.8,0.2,1.4,0.5,1.8c0.3,0.4,0.8,0.6,1.4,0.6
				c0.3,0,0.5,0,0.8-0.1c0.2-0.1,0.5-0.1,0.8-0.2v0.9c-0.5,0.2-1.1,0.3-1.7,0.3c-0.9,0-1.6-0.3-2.1-0.8c-0.5-0.6-0.7-1.4-0.7-2.4
				c0-0.7,0.1-1.2,0.4-1.7c0.2-0.5,0.6-0.9,1-1.1c0.5-0.3,1-0.4,1.6-0.4c0.6,0,1.2,0.1,1.8,0.4l-0.4,0.9c-0.2-0.1-0.4-0.2-0.7-0.3
				C130.3,70.3,130.1,70.2,129.8,70.2z"/>
			<path class="st0" d="M137.7,75.7h-1v-2.8h-2.9v2.8h-1v-6.3h1V72h2.9v-2.6h1V75.7z"/>
			<path class="st0" d="M145.7,75.7l-0.6-1.7h-2.4l-0.6,1.7h-1.1l2.4-6.3h1.1l2.4,6.3H145.7z M144.8,73.1l-0.6-1.7
				c0-0.1-0.1-0.3-0.2-0.5c-0.1-0.2-0.1-0.4-0.2-0.5c-0.1,0.4-0.2,0.7-0.3,1.2l-0.6,1.6H144.8z"/>
			<path class="st0" d="M152.9,75.7h-1.3l-3.1-5h0l0,0.3c0,0.5,0.1,1,0.1,1.5v3.3h-0.9v-6.3h1.2l3.1,5h0c0-0.1,0-0.3,0-0.7
				c0-0.4,0-0.7,0-1v-3.3h0.9V75.7z"/>
			<path class="st0" d="M159.7,72.5c0,1-0.3,1.8-0.9,2.4c-0.6,0.5-1.4,0.8-2.5,0.8h-1.8v-6.3h1.9c1,0,1.8,0.3,2.3,0.8
				C159.4,70.8,159.7,71.5,159.7,72.5z M158.6,72.6c0-1.5-0.7-2.3-2.1-2.3h-0.9v4.6h0.7C157.9,74.9,158.6,74.1,158.6,72.6z"/>
			<path class="st0" d="M167.1,74c0,0.6-0.2,1-0.6,1.3c-0.4,0.3-1,0.5-1.7,0.5s-1.3-0.1-1.7-0.3v-1c0.3,0.1,0.6,0.2,0.9,0.3
				c0.3,0.1,0.6,0.1,0.9,0.1c0.4,0,0.7-0.1,0.9-0.2c0.2-0.2,0.3-0.4,0.3-0.6c0-0.2-0.1-0.4-0.3-0.6c-0.2-0.2-0.5-0.4-1.1-0.6
				c-0.6-0.2-1-0.5-1.2-0.8c-0.2-0.3-0.4-0.7-0.4-1.1c0-0.5,0.2-0.9,0.6-1.2c0.4-0.3,0.9-0.5,1.5-0.5c0.6,0,1.2,0.1,1.8,0.4
				l-0.3,0.8c-0.6-0.2-1.1-0.4-1.5-0.4c-0.3,0-0.6,0.1-0.8,0.2c-0.2,0.1-0.3,0.3-0.3,0.6c0,0.2,0,0.3,0.1,0.4
				c0.1,0.1,0.2,0.2,0.3,0.3s0.4,0.2,0.9,0.4c0.5,0.2,0.8,0.4,1,0.5c0.2,0.2,0.4,0.4,0.5,0.6C167,73.5,167.1,73.7,167.1,74z"/>
			<path class="st0" d="M172.5,71.3c0,0.7-0.2,1.2-0.6,1.5c-0.4,0.3-1,0.5-1.8,0.5h-0.7v2.4h-1v-6.3h1.8c0.8,0,1.4,0.2,1.8,0.5
				C172.3,70.2,172.5,70.7,172.5,71.3z M169.4,72.5h0.5c0.5,0,0.9-0.1,1.2-0.3c0.2-0.2,0.4-0.5,0.4-0.9c0-0.4-0.1-0.6-0.3-0.8
				c-0.2-0.2-0.6-0.3-1-0.3h-0.7V72.5z"/>
			<path class="st0" d="M177.4,75.7h-3.6v-6.3h3.6v0.9h-2.5V72h2.4v0.9h-2.4v2h2.5V75.7z"/>
			<path class="st0" d="M181.5,70.2c-0.6,0-1.1,0.2-1.4,0.6c-0.3,0.4-0.5,1-0.5,1.7c0,0.8,0.2,1.4,0.5,1.8c0.3,0.4,0.8,0.6,1.4,0.6
				c0.3,0,0.5,0,0.8-0.1c0.2-0.1,0.5-0.1,0.8-0.2v0.9c-0.5,0.2-1.1,0.3-1.7,0.3c-0.9,0-1.6-0.3-2.1-0.8c-0.5-0.6-0.7-1.4-0.7-2.4
				c0-0.7,0.1-1.2,0.4-1.7c0.2-0.5,0.6-0.9,1-1.1c0.5-0.3,1-0.4,1.6-0.4c0.6,0,1.2,0.1,1.8,0.4l-0.4,0.9c-0.2-0.1-0.4-0.2-0.7-0.3
				C182,70.3,181.7,70.2,181.5,70.2z"/>
			<path class="st0" d="M184.4,75.7v-6.3h1v6.3H184.4z"/>
			<path class="st0" d="M191.1,75.7l-0.6-1.7H188l-0.6,1.7h-1.1l2.4-6.3h1.1l2.4,6.3H191.1z M190.2,73.1l-0.6-1.7
				c0-0.1-0.1-0.3-0.2-0.5c-0.1-0.2-0.1-0.4-0.2-0.5c-0.1,0.4-0.2,0.7-0.3,1.2l-0.6,1.6H190.2z"/>
			<path class="st0" d="M193,75.7v-6.3h1v5.4h2.7v0.9H193z"/>
			<path class="st0" d="M202.9,70.2c-0.6,0-1.1,0.2-1.4,0.6c-0.3,0.4-0.5,1-0.5,1.7c0,0.8,0.2,1.4,0.5,1.8c0.3,0.4,0.8,0.6,1.4,0.6
				c0.3,0,0.5,0,0.8-0.1c0.2-0.1,0.5-0.1,0.8-0.2v0.9c-0.5,0.2-1.1,0.3-1.7,0.3c-0.9,0-1.6-0.3-2.1-0.8c-0.5-0.6-0.7-1.4-0.7-2.4
				c0-0.7,0.1-1.2,0.4-1.7c0.2-0.5,0.6-0.9,1-1.1c0.5-0.3,1-0.4,1.6-0.4c0.6,0,1.2,0.1,1.8,0.4l-0.4,0.9c-0.2-0.1-0.4-0.2-0.7-0.3
				C203.4,70.3,203.1,70.2,202.9,70.2z"/>
			<path class="st0" d="M211.4,72.6c0,1-0.3,1.8-0.8,2.4c-0.5,0.6-1.2,0.9-2.2,0.9c-1,0-1.7-0.3-2.2-0.8c-0.5-0.6-0.8-1.4-0.8-2.4
				c0-1,0.3-1.8,0.8-2.4c0.5-0.6,1.2-0.8,2.2-0.8c0.9,0,1.7,0.3,2.2,0.8C211.2,70.8,211.4,71.6,211.4,72.6z M206.6,72.6
				c0,0.8,0.2,1.4,0.5,1.8c0.3,0.4,0.8,0.6,1.4,0.6c0.6,0,1.1-0.2,1.4-0.6c0.3-0.4,0.5-1,0.5-1.8c0-0.8-0.2-1.4-0.5-1.8
				c-0.3-0.4-0.8-0.6-1.4-0.6c-0.6,0-1.1,0.2-1.4,0.6C206.8,71.2,206.6,71.8,206.6,72.6z"/>
			<path class="st0" d="M212.8,75.7v-6.3h1v5.4h2.7v0.9H212.8z"/>
			<path class="st0" d="M217.6,75.7v-6.3h1v5.4h2.7v0.9H217.6z"/>
			<path class="st0" d="M226,75.7h-3.6v-6.3h3.6v0.9h-2.5V72h2.4v0.9h-2.4v2h2.5V75.7z"/>
			<path class="st0" d="M230.1,70.2c-0.6,0-1.1,0.2-1.4,0.6c-0.3,0.4-0.5,1-0.5,1.7c0,0.8,0.2,1.4,0.5,1.8c0.3,0.4,0.8,0.6,1.4,0.6
				c0.3,0,0.5,0,0.8-0.1c0.2-0.1,0.5-0.1,0.8-0.2v0.9c-0.5,0.2-1.1,0.3-1.7,0.3c-0.9,0-1.6-0.3-2.1-0.8c-0.5-0.6-0.7-1.4-0.7-2.4
				c0-0.7,0.1-1.2,0.4-1.7c0.2-0.5,0.6-0.9,1-1.1c0.5-0.3,1-0.4,1.6-0.4c0.6,0,1.2,0.1,1.8,0.4l-0.4,0.9c-0.2-0.1-0.4-0.2-0.7-0.3
				C230.6,70.3,230.4,70.2,230.1,70.2z"/>
			<path class="st0" d="M235.2,75.7h-1v-5.4h-1.9v-0.9h4.7v0.9h-1.9V75.7z"/>
			<path class="st0" d="M238.1,75.7v-6.3h1v6.3H238.1z"/>
			<path class="st0" d="M246.4,72.6c0,1-0.3,1.8-0.8,2.4c-0.5,0.6-1.2,0.9-2.2,0.9c-1,0-1.7-0.3-2.2-0.8c-0.5-0.6-0.8-1.4-0.8-2.4
				c0-1,0.3-1.8,0.8-2.4c0.5-0.6,1.2-0.8,2.2-0.8c0.9,0,1.7,0.3,2.2,0.8C246.2,70.8,246.4,71.6,246.4,72.6z M241.6,72.6
				c0,0.8,0.2,1.4,0.5,1.8c0.3,0.4,0.8,0.6,1.4,0.6c0.6,0,1.1-0.2,1.4-0.6c0.3-0.4,0.5-1,0.5-1.8c0-0.8-0.2-1.4-0.5-1.8
				c-0.3-0.4-0.8-0.6-1.4-0.6c-0.6,0-1.1,0.2-1.4,0.6C241.8,71.2,241.6,71.8,241.6,72.6z"/>
			<path class="st0" d="M253.1,75.7h-1.3l-3.1-5h0l0,0.3c0,0.5,0.1,1,0.1,1.5v3.3h-0.9v-6.3h1.2l3.1,5h0c0-0.1,0-0.3,0-0.7
				c0-0.4,0-0.7,0-1v-3.3h0.9V75.7z"/>
			<path class="st0" d="M258.4,74c0,0.6-0.2,1-0.6,1.3c-0.4,0.3-1,0.5-1.7,0.5c-0.7,0-1.3-0.1-1.7-0.3v-1c0.3,0.1,0.6,0.2,0.9,0.3
				c0.3,0.1,0.6,0.1,0.9,0.1c0.4,0,0.7-0.1,0.9-0.2c0.2-0.2,0.3-0.4,0.3-0.6c0-0.2-0.1-0.4-0.3-0.6c-0.2-0.2-0.5-0.4-1.1-0.6
				c-0.6-0.2-1-0.5-1.2-0.8c-0.2-0.3-0.4-0.7-0.4-1.1c0-0.5,0.2-0.9,0.6-1.2c0.4-0.3,0.9-0.5,1.5-0.5c0.6,0,1.2,0.1,1.8,0.4
				l-0.3,0.8c-0.6-0.2-1.1-0.4-1.5-0.4c-0.3,0-0.6,0.1-0.8,0.2c-0.2,0.1-0.3,0.3-0.3,0.6c0,0.2,0,0.3,0.1,0.4
				c0.1,0.1,0.2,0.2,0.3,0.3s0.4,0.2,0.9,0.4c0.5,0.2,0.8,0.4,1,0.5c0.2,0.2,0.4,0.4,0.5,0.6C258.4,73.5,258.4,73.7,258.4,74z"/>
			<path class="st0" d="M265.9,75.7l-0.6-1.7h-2.4l-0.6,1.7h-1.1l2.4-6.3h1.1l2.4,6.3H265.9z M265,73.1l-0.6-1.7
				c0-0.1-0.1-0.3-0.2-0.5c-0.1-0.2-0.1-0.4-0.2-0.5c-0.1,0.4-0.2,0.7-0.3,1.2l-0.6,1.6H265z"/>
			<path class="st0" d="M271.5,69.4h1.1l-2.2,6.3h-1.1l-2.2-6.3h1.1l1.3,3.9c0.1,0.2,0.1,0.4,0.2,0.7c0.1,0.3,0.1,0.5,0.2,0.7
				c0-0.2,0.1-0.5,0.2-0.8c0.1-0.3,0.1-0.5,0.2-0.6L271.5,69.4z"/>
			<path class="st0" d="M277.3,75.7l-0.6-1.7h-2.4l-0.6,1.7h-1.1l2.4-6.3h1.1l2.4,6.3H277.3z M276.4,73.1l-0.6-1.7
				c0-0.1-0.1-0.3-0.2-0.5c-0.1-0.2-0.1-0.4-0.2-0.5c-0.1,0.4-0.2,0.7-0.3,1.2l-0.6,1.6H276.4z"/>
			<path class="st0" d="M279.3,75.7v-6.3h1v6.3H279.3z"/>
			<path class="st0" d="M282,75.7v-6.3h1v5.4h2.7v0.9H282z"/>
			<path class="st0" d="M290.8,75.7l-0.6-1.7h-2.4l-0.6,1.7H286l2.4-6.3h1.1l2.4,6.3H290.8z M289.9,73.1l-0.6-1.7
				c0-0.1-0.1-0.3-0.2-0.5c-0.1-0.2-0.1-0.4-0.2-0.5c-0.1,0.4-0.2,0.7-0.3,1.2l-0.6,1.6H289.9z"/>
			<path class="st0" d="M292.7,69.4h1.9c0.9,0,1.5,0.1,1.9,0.4c0.4,0.3,0.6,0.7,0.6,1.2c0,0.4-0.1,0.7-0.3,0.9
				c-0.2,0.2-0.5,0.4-0.8,0.5v0c0.4,0.1,0.8,0.2,1,0.5c0.2,0.2,0.3,0.6,0.3,1c0,0.6-0.2,1-0.6,1.3c-0.4,0.3-0.9,0.5-1.6,0.5h-2.3
				V69.4z M293.8,72h1c0.4,0,0.7-0.1,0.9-0.2c0.2-0.1,0.3-0.4,0.3-0.7c0-0.3-0.1-0.5-0.3-0.6c-0.2-0.1-0.6-0.2-1-0.2h-0.9V72z
				 M293.8,72.9v2h1.1c0.4,0,0.8-0.1,1-0.2c0.2-0.2,0.3-0.4,0.3-0.8c0-0.3-0.1-0.6-0.3-0.7c-0.2-0.2-0.6-0.2-1-0.2H293.8z"/>
			<path class="st0" d="M298.6,75.7v-6.3h1v5.4h2.7v0.9H298.6z"/>
			<path class="st0" d="M307,75.7h-3.6v-6.3h3.6v0.9h-2.5V72h2.4v0.9h-2.4v2h2.5V75.7z"/>
			<path class="st0" d="M310.7,75.7v-6.3h1v5.4h2.7v0.9H310.7z"/>
			<path class="st0" d="M321.1,72.6c0,1-0.3,1.8-0.8,2.4c-0.5,0.6-1.2,0.9-2.2,0.9c-1,0-1.7-0.3-2.2-0.8c-0.5-0.6-0.8-1.4-0.8-2.4
				c0-1,0.3-1.8,0.8-2.4c0.5-0.6,1.2-0.8,2.2-0.8c0.9,0,1.7,0.3,2.2,0.8C320.9,70.8,321.1,71.6,321.1,72.6z M316.3,72.6
				c0,0.8,0.2,1.4,0.5,1.8c0.3,0.4,0.8,0.6,1.4,0.6c0.6,0,1.1-0.2,1.4-0.6c0.3-0.4,0.5-1,0.5-1.8c0-0.8-0.2-1.4-0.5-1.8
				c-0.3-0.4-0.8-0.6-1.4-0.6c-0.6,0-1.1,0.2-1.4,0.6C316.5,71.2,316.3,71.8,316.3,72.6z"/>
			<path class="st0" d="M325.2,70.2c-0.6,0-1.1,0.2-1.4,0.6c-0.3,0.4-0.5,1-0.5,1.7c0,0.8,0.2,1.4,0.5,1.8c0.3,0.4,0.8,0.6,1.4,0.6
				c0.3,0,0.5,0,0.8-0.1c0.2-0.1,0.5-0.1,0.8-0.2v0.9c-0.5,0.2-1.1,0.3-1.7,0.3c-0.9,0-1.6-0.3-2.1-0.8c-0.5-0.6-0.7-1.4-0.7-2.4
				c0-0.7,0.1-1.2,0.4-1.7c0.2-0.5,0.6-0.9,1-1.1c0.5-0.3,1-0.4,1.6-0.4c0.6,0,1.2,0.1,1.8,0.4l-0.4,0.9c-0.2-0.1-0.4-0.2-0.7-0.3
				C325.7,70.3,325.5,70.2,325.2,70.2z"/>
			<path class="st0" d="M332.1,75.7l-0.6-1.7H329l-0.6,1.7h-1.1l2.4-6.3h1.1l2.4,6.3H332.1z M331.2,73.1l-0.6-1.7
				c0-0.1-0.1-0.3-0.2-0.5c-0.1-0.2-0.1-0.4-0.2-0.5c-0.1,0.4-0.2,0.7-0.3,1.2l-0.6,1.6H331.2z"/>
			<path class="st0" d="M334,75.7v-6.3h1v5.4h2.7v0.9H334z"/>
			<path class="st0" d="M338.9,75.7v-6.3h1v5.4h2.7v0.9H338.9z"/>
			<path class="st0" d="M345.5,72.3l1.5-2.9h1.1l-2.1,3.9v2.4h-1v-2.4l-2.1-3.9h1.1L345.5,72.3z"/>
		</g>
	</g>
	<g>
		<path class="st0" d="M37.7,7.2C18.6,7.2,3.1,22.7,3.1,41.9c0,19.1,15.5,34.6,34.6,34.6c6.6,0,12.8-1.9,18.1-5.1L42.7,55.3
			c-3.9,2.8-8.8,4-13.9,3c-9.4-2-15.4-11.2-13.4-20.7c2-9.4,11.2-15.4,20.7-13.4c9.4,2,15.4,11.2,13.4,20.7
			c-0.8,3.7-2.7,6.9-5.3,9.2l13.3,16.2c9-6.3,14.9-16.6,14.9-28.4C72.3,22.7,56.8,7.2,37.7,7.2z"/>
		
			<ellipse transform="matrix(0.2075 -0.9782 0.9782 0.2075 -14.6552 64.3624)" class="st1" cx="32.4" cy="41.2" rx="15.8" ry="15.8"/>
	</g>
</g>
</svg>
